{"asset":{"version":"2.0","generator":"THREE.GLTFExporter"},"scenes":[{"nodes":[0,1,2,3,4]}],"scene":0,"nodes":[{"matrix":[1,0,0,0,0,1,0,0,0,0,1,0,0.6666666666666666,0.6666666666666666,0.3333333333333333,1],"extensions":{"KHR_lights_punctual":{"light":0}}},{"matrix":[1,0,0,0,0,1,0,0,0,0,1,0,8,72,24,1],"mesh":0},{"matrix":[1,0,0,0,0,1,0,0,0,0,1,0,8,56,24,1],"mesh":1},{"matrix":[1,0,0,0,0,1,0,0,0,0,1,0,8,72,8,1],"mesh":2},{"matrix":[1,0,0,0,0,1,0,0,0,0,1,0,8,56,8,1],"mesh":3}],"extensions":{"KHR_lights_punctual":{"lights":[{"color":[1,1,1],"intensity":0.5,"type":"directional"}]}},"bufferViews":[{"buffer":0,"byteOffset":0,"byteLength":18384,"target":34962,"byteStride":12},{"buffer":0,"byteOffset":18384,"byteLength":18384,"target":34962,"byteStride":12},{"buffer":0,"byteOffset":36768,"byteLength":18384,"target":34962,"byteStride":12},{"buffer":0,"byteOffset":55152,"byteLength":12256,"target":34962,"byteStride":8},{"buffer":0,"byteOffset":67408,"byteLength":4596,"target":34963},{"buffer":0,"byteOffset":72004,"byteLength":30048,"target":34962,"byteStride":12},{"buffer":0,"byteOffset":102052,"byteLength":30048,"target":34962,"byteStride":12},{"buffer":0,"byteOffset":132100,"byteLength":30048,"target":34962,"byteStride":12},{"buffer":0,"byteOffset":162148,"byteLength":20032,"target":34962,"byteStride":8},{"buffer":0,"byteOffset":182180,"byteLength":7512,"target":34963},{"buffer":0,"byteOffset":189692,"byteLength":54528,"target":34962,"byteStride":12},{"buffer":0,"byteOffset":244220,"byteLength":54528,"target":34962,"byteStride":12},{"buffer":0,"byteOffset":298748,"byteLength":54528,"target":34962,"byteStride":12},{"buffer":0,"byteOffset":353276,"byteLength":36352,"target":34962,"byteStride":8},{"buffer":0,"byteOffset":389628,"byteLength":13632,"target":34963},{"buffer":0,"byteOffset":403260,"byteLength":44880,"target":34962,"byteStride":12},{"buffer":0,"byteOffset":448140,"byteLength":44880,"target":34962,"byteStride":12},{"buffer":0,"byteOffset":493020,"byteLength":44880,"target":34962,"byteStride":12},{"buffer":0,"byteOffset":537900,"byteLength":29920,"target":34962,"byteStride":8},{"buffer":0,"byteOffset":567820,"byteLength":11220,"target":34963}],"buffers":[{"byteLength":579040,"uri":"data:application/octet-stream;base64,"}],"accessors":[{"bufferView":0,"componentType":5126,"count":1532,"max":[8,-5,-1],"min":[-8,-8,-8],"type":"VEC3"},{"bufferView":1,"componentType":5126,"count":1532,"max":[1,1,1],"min":[-1,-1,-1],"type":"VEC3"},{"bufferView":2,"componentType":5126,"count":1532,"max":[1,1,1],"min":[0.13921569287776947,0.18137255311012268,0.11078431457281113],"type":"VEC3"},{"bufferView":3,"componentType":5126,"count":1532,"max":[1,0.59375],"min":[0,0.21875],"type":"VEC2"},{"bufferView":4,"componentType":5123,"count":2298,"max":[1531],"min":[0],"type":"SCALAR"},{"bufferView":5,"componentType":5126,"count":2504,"max":[8,8,-1],"min":[-8,4,-8],"type":"VEC3"},{"bufferView":6,"componentType":5126,"count":2504,"max":[1,1,1],"min":[-1,-1,-1],"type":"VEC3"},{"bufferView":7,"componentType":5126,"count":2504,"max":[1,1,1],"min":[0.13921569287776947,0.18137255311012268,0.11078431457281113],"type":"VEC3"},{"bufferView":8,"componentType":5126,"count":2504,"max":[1,0.59375],"min":[0,0.21875],"type":"VEC2"},{"bufferView":9,"componentType":5123,"count":3756,"max":[2503],"min":[0],"type":"SCALAR"},{"bufferView":10,"componentType":5126,"count":4544,"max":[8,-2,8],"min":[-8,-8,-8],"type":"VEC3"},{"bufferView":11,"componentType":5126,"count":4544,"max":[1,1,1],"min":[-1,-1,-1],"type":"VEC3"},{"bufferView":12,"componentType":5126,"count":4544,"max":[1,1,1],"min":[0.13921569287776947,0.18137255311012268,0.11078431457281113],"type":"VEC3"},{"bufferView":13,"componentType":5126,"count":4544,"max":[1,0.59375],"min":[0,0.21875],"type":"VEC2"},{"bufferView":14,"componentType":5123,"count":6816,"max":[4543],"min":[0],"type":"SCALAR"},{"bufferView":15,"componentType":5126,"count":3740,"max":[8,8,8],"min":[-8,4,-8],"type":"VEC3"},{"bufferView":16,"componentType":5126,"count":3740,"max":[1,1,1],"min":[-1,-1,-1],"type":"VEC3"},{"bufferView":17,"componentType":5126,"count":3740,"max":[1,1,1],"min":[0.13921569287776947,0.18137255311012268,0.11078431457281113],"type":"VEC3"},{"bufferView":18,"componentType":5126,"count":3740,"max":[1,0.59375],"min":[0,0.15625],"type":"VEC2"},{"bufferView":19,"componentType":5123,"count":5610,"max":[3739],"min":[0],"type":"SCALAR"}],"materials":[{"pbrMetallicRoughness":{"metallicFactor":0.5,"roughnessFactor":0.5,"baseColorTexture":{"index":0}},"alphaMode":"BLEND"}],"textures":[{"sampler":0,"source":0}],"samplers":[{"magFilter":9728,"minFilter":9728,"wrapS":33071,"wrapT":33071}],"images":[{"mimeType":"image/png","uri":"data:image/png;base64,"}],"meshes":[{"primitives":[{"mode":4,"attributes":{"POSITION":0,"NORMAL":1,"COLOR_0":2,"TEXCOORD_0":3},"indices":4,"material":0}]},{"primitives":[{"mode":4,"attributes":{"POSITION":5,"NORMAL":6,"COLOR_0":7,"TEXCOORD_0":8},"indices":9,"material":0}]},{"primitives":[{"mode":4,"attributes":{"POSITION":10,"NORMAL":11,"COLOR_0":12,"TEXCOORD_0":13},"indices":14,"material":0}]},{"primitives":[{"mode":4,"attributes":{"POSITION":15,"NORMAL":16,"COLOR_0":17,"TEXCOORD_0":18},"indices":19,"material":0}]}],"extensionsUsed":["KHR_lights_punctual"]}