<svg xmlns="http://www.w3.org/2000/svg" viewBox="0 0 600 600">
  <!-- Input Layer -->
  <circle cx="100" cy="220" r="40" fill="#86efac"/>
  <circle cx="100" cy="380" r="40" fill="#86efac"/>
  <!-- Hidden Layer -->
  <circle cx="300" cy="150" r="40" fill="#93c5fd"/>
  <circle cx="300" cy="300" r="40" fill="#93c5fd"/>
  <circle cx="300" cy="450" r="40" fill="#93c5fd"/>
  <!-- Output Layer -->
  <circle cx="500" cy="220" r="40" fill="#86efac"/>
  <circle cx="500" cy="380" r="40" fill="#86efac"/>
  <!-- Connections -->
  <path d="M140 220 L260 150" stroke="#94a3b8" stroke-width="6"/>
  <path d="M140 220 L260 300" stroke="#94a3b8" stroke-width="6"/>
  <path d="M140 220 L260 450" stroke="#94a3b8" stroke-width="6"/>
  <path d="M140 380 L260 150" stroke="#94a3b8" stroke-width="6"/>
  <path d="M140 380 L260 300" stroke="#94a3b8" stroke-width="6"/>
  <path d="M140 380 L260 450" stroke="#94a3b8" stroke-width="6"/>
  <path d="M340 150 L460 220" stroke="#94a3b8" stroke-width="6"/>
  <path d="M340 150 L460 380" stroke="#94a3b8" stroke-width="6"/>
  <path d="M340 300 L460 220" stroke="#94a3b8" stroke-width="6"/>
  <path d="M340 300 L460 380" stroke="#94a3b8" stroke-width="6"/>
  <path d="M340 450 L460 220" stroke="#94a3b8" stroke-width="6"/>
  <path d="M340 450 L460 380" stroke="#94a3b8" stroke-width="6"/>
</svg>